<svg width="28" height="28" viewBox="0 0 28 28" fill="none" xmlns="http://www.w3.org/2000/svg">
<path fill-rule="evenodd" clip-rule="evenodd" d="M13.1752 3.84183C13.394 3.62311 13.6906 3.50024 14 3.50024C14.3094 3.50024 14.6061 3.62311 14.8248 3.84183L21.8248 10.8418L24.1582 13.1752C24.3707 13.3952 24.4883 13.6899 24.4856 13.9958C24.483 14.3017 24.3603 14.5943 24.144 14.8106C23.9277 15.0269 23.635 15.1496 23.3291 15.1523C23.0232 15.1549 22.7285 15.0373 22.5085 14.8248L22.1667 14.483V22.1667C22.1667 22.7855 21.9208 23.379 21.4833 23.8166C21.0457 24.2542 20.4522 24.5 19.8333 24.5H16.3333C16.0239 24.5 15.7272 24.3771 15.5084 24.1583C15.2896 23.9395 15.1667 23.6427 15.1667 23.3333V19.8333H12.8333V23.3333C12.8333 23.6427 12.7104 23.9395 12.4916 24.1583C12.2728 24.3771 11.9761 24.5 11.6667 24.5H8.16667C7.54784 24.5 6.95434 24.2542 6.51676 23.8166C6.07917 23.379 5.83334 22.7855 5.83334 22.1667V14.483L5.49151 14.8248C5.27147 15.0373 4.97677 15.1549 4.67087 15.1523C4.36498 15.1496 4.07236 15.0269 3.85605 14.8106C3.63974 14.5943 3.51705 14.3017 3.51439 13.9958C3.51173 13.6899 3.62932 13.3952 3.84184 13.1752L6.17517 10.8418L13.1752 3.84183Z" fill="#757575"/>
</svg>
