<svg width="28" height="28" viewBox="0 0 28 28" fill="none" xmlns="http://www.w3.org/2000/svg">
<path d="M11.837 3.78931C12.0113 3.35847 12.3103 2.98951 12.6957 2.72971C13.0811 2.46991 13.5352 2.33112 14 2.33112C14.4648 2.33112 14.9189 2.46991 15.3043 2.72971C15.6897 2.98951 15.9887 3.35847 16.163 3.78931C17.8885 4.26324 19.4106 5.29079 20.4953 6.71398C21.5799 8.13717 22.1672 9.87723 22.1667 11.6666V17.1465L24.304 20.3525C24.4212 20.5282 24.4885 20.7324 24.4988 20.9434C24.509 21.1543 24.4618 21.3641 24.3622 21.5504C24.2625 21.7366 24.1142 21.8923 23.933 22.0008C23.7518 22.1094 23.5445 22.1667 23.3333 22.1666H18.0425C17.902 23.1386 17.4161 24.0274 16.6736 24.6702C15.9312 25.3131 14.982 25.6669 14 25.6669C13.0179 25.6669 12.0688 25.3131 11.3263 24.6702C10.5839 24.0274 10.098 23.1386 9.95749 22.1666H4.66666C4.45544 22.1667 4.24818 22.1094 4.06698 22.0008C3.88578 21.8923 3.73745 21.7366 3.63781 21.5504C3.53816 21.3641 3.49094 21.1543 3.50119 20.9434C3.51144 20.7324 3.57877 20.5282 3.69599 20.3525L5.83332 17.1465V11.6666C5.83332 7.90531 8.37666 4.73664 11.837 3.78931ZM12.3503 22.1666C12.4708 22.5081 12.6942 22.8037 12.9898 23.0128C13.2854 23.222 13.6385 23.3342 14.0006 23.3342C14.3626 23.3342 14.7158 23.222 15.0113 23.0128C15.3069 22.8037 15.5303 22.5081 15.6508 22.1666H12.3503ZM14 5.83331C12.4529 5.83331 10.9692 6.44789 9.8752 7.54185C8.78124 8.63581 8.16666 10.1195 8.16666 11.6666V17.5C8.16671 17.7304 8.09851 17.9557 7.97066 18.1475L6.84716 19.8333H21.1517L20.0282 18.1475C19.9007 17.9556 19.8329 17.7303 19.8333 17.5V11.6666C19.8333 10.1195 19.2187 8.63581 18.1248 7.54185C17.0308 6.44789 15.5471 5.83331 14 5.83331Z" fill="#757575"/>
</svg>
